<?xml version="1.0" standalone="no"?><!DOCTYPE svg PUBLIC "-//W3C//DTD SVG 1.1//EN" "http://www.w3.org/Graphics/SVG/1.1/DTD/svg11.dtd"><svg t="1543129159116" class="icon" style="" viewBox="0 0 1024 1024" version="1.1" xmlns="http://www.w3.org/2000/svg" p-id="27277" xmlns:xlink="http://www.w3.org/1999/xlink" width="200" height="200"><defs><style type="text/css"></style></defs><path d="M953.385732 136.730081l0 744.888118L66.61314 881.618199 66.61314 136.730081 953.385732 136.730081zM102.084003 278.613532l106.412588 0L208.496591 172.200944 102.084003 172.200944 102.084003 278.613532zM102.084003 420.496983l106.412588 0L208.496591 314.084395 102.084003 314.084395 102.084003 420.496983zM102.084003 562.381457l106.412588 0L208.496591 455.967846 102.084003 455.967846 102.084003 562.381457zM102.084003 704.264908l106.412588 0L208.496591 597.85232 102.084003 597.85232 102.084003 704.264908zM208.496591 739.735771 102.084003 739.735771l0 106.412588 106.412588 0L208.496591 739.735771zM243.967454 491.438709l532.062941 0L776.030395 172.200944 243.967454 172.200944 243.967454 491.438709zM776.031419 526.910595 243.967454 526.910595l0 319.237765 532.062941 0L776.030395 526.910595zM917.91487 278.613532 917.91487 172.200944 811.502281 172.200944l0 106.412588L917.91487 278.613532zM917.91487 314.084395 811.502281 314.084395l0 106.412588 106.412588 0L917.91487 314.084395zM917.91487 455.967846 811.502281 455.967846 811.502281 562.381457l106.412588 0L917.91487 455.967846zM917.91487 597.85232 811.502281 597.85232l0 106.412588 106.412588 0L917.91487 597.85232zM917.91487 739.735771 811.502281 739.735771l0 106.412588 106.412588 0L917.91487 739.735771z" p-id="27278" fill="#ff8547"></path></svg>